<svg width="25" height="19" viewBox="0 0 25 19" fill="none" xmlns="http://www.w3.org/2000/svg">
<path d="M23.75 0.75H1.25C0.559766 0.75 0 1.30977 0 2V17C0 17.6902 0.559766 18.25 1.25 18.25H23.75C24.4402 18.25 25 17.6902 25 17V2C25 1.30977 24.4402 0.75 23.75 0.75ZM6.875 12.3078V12.9375C6.875 13.1102 6.73516 13.25 6.5625 13.25H5.9375C5.76484 13.25 5.625 13.1102 5.625 12.9375V12.3012C5.18398 12.2785 4.75508 12.1246 4.39961 11.8578C4.24727 11.7434 4.23945 11.5152 4.37734 11.3836L4.83633 10.9457C4.94453 10.8426 5.10547 10.8379 5.23203 10.9172C5.3832 11.0117 5.55469 11.0625 5.73281 11.0625H6.83086C7.08477 11.0625 7.2918 10.8313 7.2918 10.5473C7.2918 10.3148 7.15078 10.1102 6.94922 10.05L5.19141 9.52266C4.46523 9.30469 3.95781 8.60781 3.95781 7.82773C3.95781 6.86992 4.70195 6.0918 5.62461 6.06719V5.4375C5.62461 5.26484 5.76445 5.125 5.93711 5.125H6.56211C6.73477 5.125 6.87461 5.26484 6.87461 5.4375V6.07383C7.31563 6.09648 7.74453 6.25 8.1 6.51719C8.25234 6.63164 8.26016 6.85977 8.12226 6.99141L7.66328 7.4293C7.55508 7.53242 7.39414 7.53711 7.26758 7.45781C7.11641 7.36289 6.94492 7.3125 6.7668 7.3125H5.66875C5.41484 7.3125 5.20781 7.54375 5.20781 7.82773C5.20781 8.06016 5.34883 8.26484 5.55039 8.325L7.3082 8.85234C8.03438 9.07031 8.5418 9.76719 8.5418 10.5473C8.5418 11.5055 7.79766 12.2832 6.875 12.3078ZM16.25 11.6875C16.25 11.8602 16.1102 12 15.9375 12H11.5625C11.3898 12 11.25 11.8602 11.25 11.6875V11.0625C11.25 10.8898 11.3898 10.75 11.5625 10.75H15.9375C16.1102 10.75 16.25 10.8898 16.25 11.0625V11.6875ZM22.5 11.6875C22.5 11.8602 22.3602 12 22.1875 12H19.0625C18.8898 12 18.75 11.8602 18.75 11.6875V11.0625C18.75 10.8898 18.8898 10.75 19.0625 10.75H22.1875C22.3602 10.75 22.5 10.8898 22.5 11.0625V11.6875ZM22.5 7.9375C22.5 8.11016 22.3602 8.25 22.1875 8.25H11.5625C11.3898 8.25 11.25 8.11016 11.25 7.9375V7.3125C11.25 7.13984 11.3898 7 11.5625 7H22.1875C22.3602 7 22.5 7.13984 22.5 7.3125V7.9375Z" fill="#FF6300"/>
</svg>
