<svg width="156" height="28" viewBox="0 0 156 28" fill="none" xmlns="http://www.w3.org/2000/svg">
<g clip-path="url(#clip0_171_248)">
<path d="M11.4725 15.5145V27.5866H8.07516V7.5213H11.3771V10.6564H11.6633C12.1958 9.62415 13.018 8.76872 14.0297 8.19441C15.0864 7.57251 16.4487 7.26156 18.1168 7.26156C20.3548 7.26156 22.1636 7.88346 23.5431 9.12725C24.9226 10.371 25.6111 12.2733 25.6087 14.8341V27.5793H22.2113V15.0426C22.2113 13.4647 21.7588 12.2355 20.8538 11.3551C19.9549 10.4735 18.7149 10.0272 17.1409 10.0272C15.663 9.98014 14.2217 10.4909 13.1052 11.4575C12.0167 12.4209 11.4725 13.7732 11.4725 15.5145Z" fill="#003050"/>
<path d="M39.8438 7.5213V10.1333H35.1147V21.8396C35.0678 22.5166 35.2154 23.193 35.5403 23.7894C35.7954 24.196 36.1846 24.5012 36.6409 24.6527C37.1002 24.7968 37.5793 24.8684 38.0608 24.8649C38.3687 24.8711 38.6767 24.8528 38.9817 24.81L39.5613 24.7113L40.2511 27.4805C39.9332 27.5798 39.6098 27.6604 39.2825 27.722C38.7653 27.8111 38.2407 27.8515 37.7159 27.8427C36.7489 27.8431 35.7913 27.6529 34.8982 27.283C34.0015 26.9229 33.2156 26.3337 32.6199 25.5746C31.9987 24.7374 31.6817 23.7143 31.721 22.6736V10.1333H28.3786V7.5213H31.721V2.71806H35.122V7.5213H39.8438Z" fill="#003050"/>
<path d="M52.1272 28C50.2123 28.0486 48.3172 27.6052 46.6239 26.7123C45.1106 25.8813 43.8736 24.6276 43.0651 23.1053C42.2063 21.438 41.7788 19.5833 41.8213 17.7094C41.7825 15.8219 42.2096 13.9539 43.0651 12.2697C43.8569 10.7386 45.0664 9.46162 46.5542 8.58584C48.146 7.67767 49.9561 7.21979 51.7896 7.26156C52.9471 7.26118 54.0978 7.43761 55.2017 7.78469C56.3302 8.13335 57.3752 8.70851 58.2725 9.47478C59.2405 10.3162 59.9949 11.3742 60.4738 12.5623C61.063 14.0681 61.3413 15.6769 61.292 17.2924V18.602H45.2261C45.3031 20.7384 45.9598 22.3846 47.2366 23.5223C48.5133 24.66 50.1276 25.2344 52.1272 25.2344C53.3221 25.2662 54.5057 24.9969 55.5686 24.4515C56.5213 23.937 57.2618 23.1041 57.6598 22.0993L60.9618 22.937C60.4012 24.4918 59.2946 25.7914 57.8469 26.5952C56.2816 27.5293 54.375 27.9976 52.1272 28ZM45.2261 15.9279H57.8212C57.8457 15.15 57.7131 14.3751 57.4314 13.6493C57.1497 12.9234 56.7245 12.2615 56.1813 11.7026C55.0831 10.5832 53.6155 10.0235 51.7786 10.0235C50.6015 9.99566 49.438 10.2797 48.4069 10.8466C47.485 11.37 46.7122 12.1191 46.1616 13.0232C45.6197 13.9035 45.2987 14.9012 45.2261 15.9315V15.9279Z" fill="#003050"/>
<path d="M68.9269 0.830414V27.5756H65.5259V0.830414H68.9269Z" fill="#003050"/>
<path d="M75.9381 4.17768C75.4499 4.18173 74.9755 4.01652 74.5959 3.71032C74.2164 3.40412 73.9554 2.97595 73.8575 2.49904C73.7595 2.02213 73.8309 1.52612 74.0592 1.09585C74.2875 0.665573 74.6587 0.327769 75.1092 0.14022C75.5598 -0.0473289 76.0616 -0.0729708 76.529 0.0676765C76.9964 0.208324 77.4003 0.506515 77.6716 0.911261C77.9428 1.31601 78.0646 1.80215 78.0161 2.28654C77.9676 2.77093 77.7518 3.22348 77.4057 3.56676C77.2156 3.76275 76.9874 3.918 76.735 4.02305C76.4827 4.12809 76.2115 4.18071 75.9381 4.17768Z" fill="#FF6300"/>
<path d="M77.6074 7.52129H74.2101V27.5793H77.6074V7.52129Z" fill="#003050"/>
<path d="M92.3086 7.5213V10.1333H87.5794V21.8396C87.5325 22.5166 87.6801 23.193 88.005 23.7894C88.2594 24.1966 88.6488 24.5021 89.1056 24.6527C89.5649 24.7968 90.044 24.8684 90.5255 24.8649C90.8334 24.8709 91.1413 24.8525 91.4464 24.81L92.0224 24.7113L92.7121 27.4805C92.3954 27.5794 92.0732 27.66 91.7472 27.722C91.23 27.8111 90.7055 27.8515 90.1806 27.8427C89.2136 27.8431 88.256 27.6529 87.3629 27.283C86.4655 26.9242 85.6794 26.3347 85.0846 25.5746C84.4634 24.7374 84.1464 23.7143 84.1857 22.6736V10.1333H80.8434V7.5213H84.1857V2.71806H87.5867V7.5213H92.3086Z" fill="#003050"/>
<path d="M104.588 28C102.673 28.0481 100.778 27.6047 99.0849 26.7123C97.5735 25.8801 96.3381 24.6266 95.5298 23.1053C94.671 21.438 94.2435 19.5833 94.2861 17.7094C94.2472 15.8219 94.6743 13.9539 95.5298 12.2697C96.3217 10.7398 97.5296 9.4631 99.0152 8.58584C100.608 7.67772 102.42 7.21987 104.254 7.26156C105.412 7.26147 106.562 7.43789 107.666 7.78469C108.795 8.13421 109.839 8.70927 110.737 9.47479C111.703 10.3184 112.457 11.3758 112.939 12.5623C113.524 14.069 113.802 15.6771 113.757 17.2924V18.602H97.6944C97.7678 20.7384 98.4282 22.3846 99.7013 23.5223C100.974 24.66 102.592 25.2344 104.588 25.2344C105.784 25.2666 106.969 24.9974 108.033 24.4515C108.986 23.937 109.726 23.1041 110.125 22.0993L113.408 22.937C112.85 24.4922 111.745 25.7923 110.297 26.5952C108.741 27.5293 106.838 27.9976 104.588 28ZM97.6944 15.9279H110.286C110.311 15.1496 110.178 14.3744 109.895 13.6485C109.613 12.9226 109.187 12.2608 108.642 11.7026C107.549 10.5832 106.081 10.0235 104.24 10.0235C103.063 9.99566 101.899 10.2797 100.868 10.8466C99.9461 11.37 99.1733 12.1191 98.6227 13.0233C98.0814 13.9033 97.7629 14.9014 97.6944 15.9315V15.9279Z" fill="#003050"/>
<path d="M126.667 28C124.788 28.0521 122.929 27.5917 121.293 26.6684C119.813 25.8025 118.613 24.5333 117.833 23.0102C117.032 21.3314 116.619 19.4948 116.626 17.6358C116.632 15.7768 117.057 13.9429 117.87 12.2697C118.665 10.748 119.874 9.48029 121.359 8.61144C122.95 7.70326 124.761 7.2454 126.594 7.28716C128.043 7.25209 129.485 7.50968 130.832 8.04442C132.016 8.52215 133.068 9.27461 133.902 10.2393C134.692 11.1774 135.201 12.3185 135.37 13.5317H131.969C131.673 12.5573 131.071 11.7033 130.252 11.0954C129.362 10.3857 128.168 10.0296 126.671 10.0272C125.767 9.99367 124.867 10.1611 124.035 10.5173C123.204 10.8735 122.463 11.4096 121.865 12.0867C120.642 13.4598 120.03 15.2816 120.03 17.5521C120.03 19.8763 120.631 21.7371 121.832 23.1346C123.033 24.532 124.642 25.2307 126.66 25.2307C127.862 25.264 129.047 24.9406 130.065 24.3015C130.992 23.7106 131.666 22.7983 131.958 21.7408H135.359C135.174 22.9109 134.685 24.0121 133.939 24.9344C133.143 25.9121 132.12 26.6828 130.96 27.1806C129.603 27.7536 128.14 28.0329 126.667 28Z" fill="#003050"/>
<path d="M141.651 15.5145V27.5866H138.25V0.830414H141.651V10.6527H141.937C142.458 9.6175 143.272 8.75755 144.278 8.17977C145.32 7.56519 146.714 7.25791 148.449 7.25791C150.717 7.25791 152.541 7.87615 153.923 9.11262C155.305 10.3491 155.998 12.255 156 14.8304V27.5756H152.599V15.0426C152.599 13.4513 152.144 12.2148 151.238 11.3441C150.332 10.4735 149.073 10.0272 147.47 10.0272C145.952 9.97425 144.469 10.4838 143.306 11.4575C142.205 12.4209 141.654 13.7732 141.651 15.5145Z" fill="#003050"/>
<path d="M0 10.3893V27.5793H3.57347V6.82623L0 10.3893Z" fill="#003050"/>
<path d="M3.57347 0.834072H0V10.3893L3.57347 6.82623V0.834072Z" fill="#FF6300"/>
</g>
<defs>
<clipPath id="clip0_171_248">
<rect width="156" height="28" fill="white"/>
</clipPath>
</defs>
</svg>
