<svg width="233" height="42" viewBox="0 0 233 42" fill="none" xmlns="http://www.w3.org/2000/svg">
<g clip-path="url(#clip0_201_61)">
<path d="M17.1352 23.272V41.3802H12.061V11.2822H16.9928V15.9848H17.4202C18.2155 14.4365 19.4436 13.1533 20.9546 12.2919C22.5328 11.359 24.5676 10.8926 27.0591 10.8926C30.4018 10.8926 33.1033 11.8254 35.1637 13.6911C37.2241 15.5568 38.2525 18.4102 38.2488 22.2514V41.3692H33.1745V22.5641C33.1745 20.1973 32.4987 18.3535 31.147 17.0329C29.8045 15.7105 27.9523 15.041 25.6015 15.041C23.3941 14.9704 21.2414 15.7367 19.5737 17.1865C17.9481 18.6315 17.1352 20.66 17.1352 23.272Z" fill="white"/>
<path d="M59.5103 11.282V15.2H52.4469V32.7594C52.3769 33.775 52.5974 34.7896 53.0826 35.6842C53.4636 36.294 54.0449 36.7519 54.7265 36.9792C55.4125 37.1953 56.128 37.3027 56.8472 37.2974C57.3071 37.3068 57.767 37.2792 58.2226 37.2151L59.0884 37.067L60.1186 41.2209C59.6438 41.3698 59.1608 41.4907 58.6719 41.583C57.8994 41.7167 57.116 41.7773 56.3321 41.7641C54.8877 41.7647 53.4575 41.4794 52.1236 40.9245C50.7842 40.3845 49.6105 39.5006 48.7207 38.362C47.7929 37.1061 47.3194 35.5715 47.3781 34.0105V15.2H42.386V11.282H47.3781V4.07715H52.4579V11.282H59.5103Z" fill="white"/>
<path d="M77.8566 42.0003C74.9966 42.0732 72.166 41.408 69.6369 40.0687C67.3767 38.8222 65.5292 36.9417 64.3216 34.6582C63.0389 32.1573 62.4003 29.3752 62.4639 26.5644C62.4059 23.7332 63.0438 20.931 64.3216 18.4048C65.5043 16.1081 67.3107 14.1927 69.5328 12.879C71.9103 11.5168 74.614 10.83 77.3525 10.8926C79.0812 10.892 80.7999 11.1567 82.4486 11.6773C84.1341 12.2003 85.695 13.063 87.0352 14.2124C88.4811 15.4745 89.6078 17.0616 90.3231 18.8438C91.203 21.1024 91.6187 23.5156 91.5451 25.9389V27.9033H67.5492C67.6642 31.1079 68.6451 33.5772 70.5521 35.2838C72.459 36.9903 74.8701 37.8518 77.8566 37.8518C79.6413 37.8995 81.4092 37.4956 82.9966 36.6776C84.4196 35.9058 85.5256 34.6565 86.1201 33.1492L91.0519 34.4058C90.2146 36.738 88.5618 38.6874 86.3996 39.8931C84.0615 41.2942 81.2139 41.9966 77.8566 42.0003ZM67.5492 23.8921H86.3612C86.3977 22.7252 86.1997 21.5629 85.7789 20.4742C85.3581 19.3854 84.7232 18.3925 83.9117 17.5542C82.2715 15.8751 80.0796 15.0355 77.336 15.0355C75.5779 14.9938 73.8401 15.4198 72.3001 16.2702C70.9231 17.0552 69.7689 18.1789 68.9465 19.5351C68.137 20.8556 67.6577 22.352 67.5492 23.8976V23.8921Z" fill="white"/>
<path d="M102.949 1.24561V41.3634H97.8688V1.24561H102.949Z" fill="white"/>
<path d="M113.42 6.26662C112.691 6.27269 111.983 6.02489 111.416 5.56558C110.849 5.10628 110.459 4.46402 110.313 3.74866C110.166 3.03329 110.273 2.28928 110.614 1.64387C110.955 0.998461 111.509 0.491755 112.182 0.210431C112.855 -0.0708923 113.605 -0.109355 114.303 0.101616C115.001 0.312587 115.604 0.759874 116.009 1.36699C116.415 1.97411 116.596 2.70333 116.524 3.42992C116.452 4.1565 116.129 4.83532 115.612 5.35025C115.328 5.64422 114.987 5.87711 114.611 6.03467C114.234 6.19224 113.829 6.27116 113.42 6.26662Z" fill="#FF6300"/>
<path d="M115.914 11.2822H110.839V41.3692H115.914V11.2822Z" fill="white"/>
<path d="M137.871 11.282V15.2H130.808V32.7594C130.738 33.775 130.958 34.7896 131.443 35.6842C131.823 36.295 132.405 36.7532 133.087 36.9792C133.773 37.1953 134.489 37.3027 135.208 37.2974C135.668 37.3064 136.128 37.2789 136.583 37.2151L137.444 37.067L138.474 41.2209C138.001 41.3692 137.52 41.4901 137.033 41.583C136.26 41.7167 135.477 41.7773 134.693 41.7641C133.248 41.7647 131.818 41.4794 130.484 40.9245C129.144 40.3863 127.97 39.5021 127.081 38.362C126.154 37.1061 125.68 35.5715 125.739 34.0105V15.2H120.747V11.282H125.739V4.07715H130.819V11.282H137.871Z" fill="white"/>
<path d="M156.212 42.0002C153.352 42.0724 150.522 41.4073 147.992 40.0687C145.735 38.8203 143.89 36.9402 142.682 34.6582C141.4 32.1573 140.761 29.3752 140.825 26.5644C140.767 23.7332 141.405 20.931 142.682 18.4047C143.865 16.1099 145.669 14.1949 147.888 12.879C150.268 11.5168 152.973 10.8301 155.713 10.8926C157.442 10.8925 159.161 11.1571 160.809 11.6773C162.494 12.2016 164.055 13.0642 165.396 14.2124C166.838 15.4779 167.964 17.064 168.684 18.8437C169.558 21.1038 169.974 23.516 169.906 25.9388V27.9033H145.915C146.025 31.1079 147.011 33.5772 148.913 35.2838C150.814 36.9903 153.231 37.8518 156.212 37.8518C157.998 37.9002 159.768 37.4963 161.357 36.6776C162.78 35.9057 163.886 34.6565 164.481 33.1492L169.385 34.4058C168.552 36.7386 166.901 38.6887 164.738 39.8931C162.415 41.2942 159.573 41.9966 156.212 42.0002ZM145.915 23.8921H164.722C164.759 22.7247 164.56 21.5619 164.138 20.473C163.717 19.3841 163.08 18.3915 162.267 17.5542C160.634 15.8751 158.442 15.0355 155.691 15.0355C153.933 14.9937 152.195 15.4198 150.655 16.2702C149.278 17.0552 148.124 18.1789 147.302 19.5351C146.493 20.8553 146.018 22.3524 145.915 23.8976V23.8921Z" fill="white"/>
<path d="M189.189 42.0002C186.382 42.0785 183.606 41.3879 181.161 40.0029C178.952 38.704 177.159 36.8002 175.994 34.5155C174.798 31.9974 174.182 29.2424 174.191 26.4539C174.201 23.6654 174.835 20.9146 176.049 18.4047C177.237 16.1223 179.043 14.2207 181.26 12.9174C183.638 11.5552 186.341 10.8684 189.08 10.931C191.244 10.8784 193.397 11.2648 195.409 12.0669C197.177 12.7835 198.75 13.9122 199.995 15.3593C201.175 16.7664 201.935 18.4781 202.187 20.2979H197.107C196.665 18.8362 195.766 17.5552 194.543 16.6433C193.213 15.5788 191.43 15.0447 189.195 15.041C187.844 14.9908 186.5 15.2419 185.258 15.7762C184.016 16.3105 182.909 17.1147 182.016 18.1304C180.19 20.1899 179.276 22.9226 179.276 26.3284C179.276 29.8147 180.173 32.6059 181.967 34.7021C183.761 36.7983 186.164 37.8464 189.178 37.8464C190.974 37.8963 192.744 37.4112 194.263 36.4526C195.648 35.5661 196.655 34.1978 197.091 32.6114H202.171C201.895 34.3666 201.163 36.0184 200.05 37.4019C198.861 38.8684 197.334 40.0245 195.601 40.7711C193.574 41.6307 191.389 42.0497 189.189 42.0002Z" fill="white"/>
<path d="M0 15.5839V41.3689H5.3373V10.2393L0 15.5839Z" fill="white"/>
<path d="M5.3373 1.25098H0V15.5839L5.3373 10.2392V1.25098Z" fill="#FF6300"/>
<path d="M211.569 23.2717V41.3799H206.489V1.24561H211.569V15.9791H211.996C212.773 14.4262 213.989 13.1363 215.492 12.2696C217.048 11.3478 219.131 10.8868 221.723 10.8868C225.109 10.8868 227.834 11.8142 229.898 13.6689C231.962 15.5236 232.996 18.3825 233 22.2456V41.3634H227.92V22.5639C227.92 20.1769 227.241 18.3222 225.887 17.0162C224.534 15.7102 222.654 15.0408 220.26 15.0408C217.993 14.9614 215.777 15.7257 214.04 17.1863C212.396 18.6313 211.572 20.6598 211.569 23.2717Z" fill="white"/>
</g>
<defs>
<clipPath id="clip0_201_61">
<rect width="233" height="42" fill="white"/>
</clipPath>
</defs>
</svg>
